<svg viewBox="-20 0 440 180" data-background-color="#ffffff" preserveAspectRatio="xMidYMid meet" height="360"
     width="650"
     xmlns="http://www.w3.org/2000/svg">
    <g>
        <rect width="395.52" height="180.60658550871975" fill="none"
              stroke-width="8.962371322224001" stroke="#6230a3"/>
        <rect width="395.52" height="27.3465403557758" y="157.60658550871975"
              fill="#6230a3"/>
    </g>
    <g>
        <svg viewBox="0 0 395.52 168.60658550871975" height="168.60658550871975"
             width="395.52">
            <g transform="matrix(1,0,0,1,23.461705032,23.461705032)">
                <svg width="348.596589936" viewBox="3.5 -35 101.69000244140625 35.5"
                     height="121.68317544471974" data-palette-color="#6230a3">
                    <path d="M24.9-6.25L24.9-6.25 24.9 0 20.1 0 20.1-6.25Q20.1-11.9 17.63-14.23 15.15-16.55 8.2-16.6L8.2-16.6 8.2 0 3.5 0 3.5-35 8.2-35 8.2-20.75Q11.9-20.65 12.6-20.55L12.6-20.55 19.65-35 24.75-35 16.85-19.45Q24.9-16.5 24.9-6.25ZM43.75-14.1L43.75-14.1 43.75-9.6Q41.85-11.05 39.1-11.05L39.1-11.05Q36.75-11.05 35.45-10.13 34.15-9.2 34.15-7.5L34.15-7.5Q34.15-4.2 39.05-4.2L39.05-4.2 45.65-4.2 45.65-13.75Q45.65-19.8 39.75-19.8L39.75-19.8 31.75-19.8 31.75-24 40-24Q44.85-24 47.45-21.6 50.05-19.2 50.05-14.7L50.05-14.7 50.05 0 38.9 0Q34.65 0 32.15-1.9 29.65-3.8 29.65-7.45 29.65-11.1 32.3-13 34.95-14.9 38.95-14.9L38.95-14.9Q41.2-14.9 43.75-14.1ZM55.55-12L55.55-35 60.05-35 60.05-12Q60.05-8.05 62.07-5.88 64.09-3.7 67.65-3.7L67.65-3.7Q71.34-3.7 73.45-5.83 75.55-7.95 75.55-12L75.55-12Q75.55-15.85 73.27-18.07 71-20.3 67.3-20.3L67.3-20.3Q64.15-20.3 61.84-18.5L61.84-18.5 61.84-23Q64.59-24.5 67.8-24.5L67.8-24.5Q73.09-24.5 76.57-21.08 80.05-17.65 80.05-12L80.05-12Q80.05-6.05 76.42-2.78 72.8 0.5 67.3 0.5L67.3 0.5Q62.05 0.5 58.8-2.9 55.55-6.3 55.55-12L55.55-12ZM105.19-24L105.19 0 96.54 0Q90.99 0 88.59-1.65L88.59-1.65Q86.44-3.1 85.87-5.13 85.29-7.15 85.29-10.45L85.29-10.45 85.29-24 89.69-24 89.69-10.5Q89.69-9.6 89.74-8.97 89.79-8.35 90.09-7.38 90.39-6.4 90.94-5.78 91.49-5.15 92.54-4.67 93.59-4.2 95.09-4.2L95.09-4.2 100.79-4.2 100.79-24 105.19-24Z"
                          opacity="1" transform="matrix(1,0,0,1,0,0)" fill="#6230a3"
                          class="wordmark-text-0"
                          id="text-0"/>
                </svg>
            </g>
        </svg>
    </g>
    <g transform="matrix(1,0,0,1,39.55199999999999,158.60658550871975)">
        <svg viewBox="0 0 316.416 27.40846913580247" height="27.40846913580247"
             width="316.416">
            <g transform="matrix(1,0,0,1,20,3.2)">
                <svg width="276.416"
                     viewBox="2.5 -38.70000076293945 647.9199829101562 49.25"
                     height="21.008469135802468" data-palette-color="#ffffff">
                    <path d="M15.65-35.05Q18.35-35.05 20.35-34.23 22.35-33.4 24.3-31.65L24.3-31.65 21.9-28.85Q20.45-30.1 19.03-30.7 17.6-31.3 15.9-31.3L15.9-31.3Q12-31.3 9.7-27.98 7.4-24.65 7.4-17.25L7.4-17.25Q7.4-10.05 9.7-6.63 12-3.2 15.9-3.2L15.9-3.2Q17.85-3.2 19.25-3.9 20.65-4.6 22.3-5.95L22.3-5.95 24.65-3.2Q20.9 0.65 15.65 0.65L15.65 0.65Q11.8 0.65 8.83-1.35 5.85-3.35 4.17-7.38 2.5-11.4 2.5-17.25L2.5-17.25Q2.5-23.05 4.23-27.05 5.95-31.05 8.93-33.05 11.9-35.05 15.65-35.05L15.65-35.05ZM40.25-26.9Q41.55-26.9 42.5-26.6L42.5-26.6 41.75-22.25Q40.8-22.55 39.7-22.55L39.7-22.55Q37.5-22.55 36.12-20.8 34.75-19.05 33.95-15.45L33.95-15.45 33.95 0 29.45 0 29.45-26.3 33.35-26.3 33.7-21.1Q35.65-26.9 40.25-26.9L40.25-26.9ZM65.34-13.95Q65.34-12.9 65.25-11.6L65.25-11.6 49.95-11.6Q50.14-7 51.8-4.98 53.45-2.95 56.3-2.95L56.3-2.95Q58.09-2.95 59.52-3.5 60.95-4.05 62.5-5.3L62.5-5.3 64.5-2.65Q60.8 0.65 56.09 0.65L56.09 0.65Q50.95 0.65 48.12-2.93 45.3-6.5 45.3-12.95L45.3-12.95Q45.3-19.4 47.99-23.18 50.7-26.95 55.49-26.95L55.49-26.95Q60.25-26.95 62.8-23.58 65.34-20.2 65.34-13.95L65.34-13.95ZM61-14.75L61-15.3Q61-23.55 55.55-23.55L55.55-23.55Q53.05-23.55 51.59-21.48 50.14-19.4 49.95-14.75L49.95-14.75 61-14.75ZM87.99-6Q87.99-4.4 88.44-3.63 88.89-2.85 89.84-2.45L89.84-2.45 88.89 0.6Q86.94 0.3 85.84-0.6 84.74-1.5 84.29-3.35L84.29-3.35Q81.74 0.65 77.14 0.65L77.14 0.65Q73.64 0.65 71.59-1.53 69.54-3.7 69.54-7.35L69.54-7.35Q69.54-11.55 72.29-13.75 75.04-15.95 80.14-15.95L80.14-15.95 83.54-15.95 83.54-18.2Q83.54-20.95 82.42-22.18 81.29-23.4 78.74-23.4L78.74-23.4Q75.99-23.4 72.34-22L72.34-22 71.24-25.15Q75.64-26.95 79.44-26.95L79.44-26.95Q87.99-26.95 87.99-18.4L87.99-18.4 87.99-6ZM78.19-2.75Q81.69-2.75 83.54-6.85L83.54-6.85 83.54-13.05 80.64-13.05Q74.14-13.05 74.14-7.6L74.14-7.6Q74.14-5.25 75.19-4 76.24-2.75 78.19-2.75L78.19-2.75ZM106.89-4.05L108.54-1.15Q106.04 0.65 102.99 0.65L102.99 0.65Q99.79 0.65 98.07-1.2 96.34-3.05 96.34-6.4L96.34-6.4 96.34-22.9 92.59-22.9 92.59-26.3 96.34-26.3 96.34-32.35 100.84-32.9 100.84-26.3 106.64-26.3 106.14-22.9 100.84-22.9 100.84-6.45Q100.84-3.05 103.69-3.05L103.69-3.05Q104.54-3.05 105.27-3.3 105.99-3.55 106.89-4.05L106.89-4.05ZM130.89-13.95Q130.89-12.9 130.79-11.6L130.79-11.6 115.49-11.6Q115.69-7 117.34-4.98 118.99-2.95 121.84-2.95L121.84-2.95Q123.64-2.95 125.06-3.5 126.49-4.05 128.04-5.3L128.04-5.3 130.04-2.65Q126.34 0.65 121.64 0.65L121.64 0.65Q116.49 0.65 113.66-2.93 110.84-6.5 110.84-12.95L110.84-12.95Q110.84-19.4 113.54-23.18 116.24-26.95 121.04-26.95L121.04-26.95Q125.79-26.95 128.34-23.58 130.89-20.2 130.89-13.95L130.89-13.95ZM126.54-14.75L126.54-15.3Q126.54-23.55 121.09-23.55L121.09-23.55Q118.59-23.55 117.14-21.48 115.69-19.4 115.49-14.75L115.49-14.75 126.54-14.75ZM149.08-34.4L153.73-34.4 153.73 0 149.08 0 149.08-34.4ZM165.68-34.4L170.63-34.4 158.98-18.7 171.43 0 166.08 0 153.93-18.4 165.68-34.4ZM184.48-26.95Q189.53-26.95 192.33-23.4 195.13-19.85 195.13-13.2L195.13-13.2Q195.13-6.8 192.28-3.08 189.43 0.65 184.43 0.65L184.43 0.65Q179.38 0.65 176.56-3 173.73-6.65 173.73-13.15L173.73-13.15Q173.73-19.7 176.58-23.33 179.43-26.95 184.48-26.95L184.48-26.95ZM184.48-23.35Q181.53-23.35 179.98-20.88 178.43-18.4 178.43-13.15L178.43-13.15Q178.43-2.9 184.43-2.9L184.43-2.9Q190.43-2.9 190.43-13.2L190.43-13.2Q190.43-18.45 188.93-20.9 187.43-23.35 184.48-23.35L184.48-23.35ZM212.43-4.05L214.08-1.15Q211.58 0.65 208.53 0.65L208.53 0.65Q205.33 0.65 203.6-1.2 201.88-3.05 201.88-6.4L201.88-6.4 201.88-22.9 198.13-22.9 198.13-26.3 201.88-26.3 201.88-32.35 206.38-32.9 206.38-26.3 212.18-26.3 211.68-22.9 206.38-22.9 206.38-6.45Q206.38-3.05 209.23-3.05L209.23-3.05Q210.08-3.05 210.8-3.3 211.53-3.55 212.43-4.05L212.43-4.05ZM222.93 0.65Q220.53 0.65 219.13-0.8 217.73-2.25 217.73-4.85L217.73-4.85 217.73-36.95 222.23-37.45 222.23-5Q222.23-3.05 223.83-3.05L223.83-3.05Q224.48-3.05 225.28-3.35L225.28-3.35 226.28-0.2Q224.68 0.65 222.93 0.65L222.93 0.65ZM231.17-26.3L235.67-26.3 235.67 0 231.17 0 231.17-26.3ZM233.42-38.7Q234.72-38.7 235.55-37.85 236.37-37 236.37-35.75L236.37-35.75Q236.37-34.5 235.57-33.68 234.77-32.85 233.42-32.85L233.42-32.85Q232.12-32.85 231.3-33.68 230.47-34.5 230.47-35.75L230.47-35.75Q230.47-37 231.3-37.85 232.12-38.7 233.42-38.7L233.42-38.7ZM255.52-26.95Q258.67-26.95 260.45-24.88 262.22-22.8 262.22-19.15L262.22-19.15 262.22 0 257.72 0 257.72-18.6Q257.72-21.15 256.87-22.28 256.02-23.4 254.27-23.4L254.27-23.4Q250.97-23.4 248.27-18.7L248.27-18.7 248.27 0 243.77 0 243.77-26.3 247.67-26.3 248.02-22.4Q251.07-26.95 255.52-26.95L255.52-26.95ZM289.17-34.4Q293.62-34.4 296.92-33.05 300.22-31.7 302.29-27.95 304.37-24.2 304.37-17.4L304.37-17.4Q304.37-7.7 300.24-3.85 296.12 0 289.82 0L289.82 0 282.07 0 282.07-34.4 289.17-34.4ZM289.87-30.75L286.72-30.75 286.72-3.6 290.12-3.6Q294.42-3.6 296.97-6.58 299.52-9.55 299.52-17.4L299.52-17.4Q299.52-22.9 298.19-25.85 296.87-28.8 294.79-29.78 292.72-30.75 289.87-30.75L289.87-30.75ZM319.26-35.05Q322.31-35.05 324.59-34.05 326.86-33.05 328.86-31.05L328.86-31.05 326.51-28.4Q324.81-29.9 323.14-30.63 321.46-31.35 319.51-31.35L319.51-31.35Q317.01-31.35 315.49-29.98 313.96-28.6 313.96-26.35L313.96-26.35Q313.96-24.85 314.56-23.78 315.16-22.7 316.61-21.83 318.06-20.95 320.71-20.05L320.71-20.05Q323.76-18.95 325.71-17.7 327.66-16.45 328.71-14.5 329.76-12.55 329.76-9.6L329.76-9.6Q329.76-6.65 328.41-4.33 327.06-2 324.54-0.68 322.01 0.65 318.61 0.65L318.61 0.65Q312.36 0.65 307.96-3.85L307.96-3.85 310.41-6.5Q312.26-4.85 314.19-3.98 316.11-3.1 318.46-3.1L318.46-3.1Q321.41-3.1 323.19-4.78 324.96-6.45 324.96-9.4L324.96-9.4Q324.96-11.95 323.54-13.45 322.11-14.95 318.31-16.25L318.31-16.25Q313.46-17.95 311.34-20.2 309.21-22.45 309.21-26.05L309.21-26.05Q309.21-28.6 310.49-30.68 311.76-32.75 314.06-33.9 316.36-35.05 319.26-35.05L319.26-35.05ZM335.91-34.4L340.56-34.4 340.56-3.95 353.11-3.95 352.61 0 335.91 0 335.91-34.4ZM364.66-26.95Q369.21-26.95 372.76-23.95L372.76-23.95 370.86-21.3Q369.26-22.4 367.86-22.95 366.46-23.5 364.91-23.5L364.91-23.5Q362.86-23.5 361.68-22.53 360.51-21.55 360.51-19.85L360.51-19.85Q360.51-18.2 361.63-17.25 362.76-16.3 365.91-15.3L365.91-15.3Q369.86-14.05 371.66-12.25 373.46-10.45 373.46-7.3L373.46-7.3Q373.46-3.6 370.76-1.48 368.06 0.65 364.01 0.65L364.01 0.65Q358.66 0.65 354.96-2.9L354.96-2.9 357.26-5.4Q360.41-2.85 363.91-2.85L363.91-2.85Q366.11-2.85 367.46-3.95 368.81-5.05 368.81-7L368.81-7Q368.81-8.4 368.33-9.25 367.86-10.1 366.63-10.78 365.41-11.45 363.06-12.2L363.06-12.2Q359.31-13.45 357.66-15.2 356.01-16.95 356.01-19.65L356.01-19.65Q356.01-21.75 357.11-23.4 358.21-25.05 360.16-26 362.11-26.95 364.66-26.95L364.66-26.95ZM405.15-37.45L409.65-36.95 409.65 0 405.65 0 405.35-3.45Q402.8 0.65 398.5 0.65L398.5 0.65Q394.2 0.65 391.83-3 389.45-6.65 389.45-13.05L389.45-13.05Q389.45-17.2 390.63-20.35 391.8-23.5 393.95-25.23 396.1-26.95 398.9-26.95L398.9-26.95Q402.65-26.95 405.15-23.8L405.15-23.8 405.15-37.45ZM399.55-2.9Q401.35-2.9 402.68-3.9 404-4.9 405.15-6.85L405.15-6.85 405.15-20.05Q402.9-23.4 399.9-23.4L399.9-23.4Q397.25-23.4 395.7-20.85 394.15-18.3 394.2-13.15L394.2-13.15Q394.2-7.9 395.6-5.4 397-2.9 399.55-2.9L399.55-2.9ZM436.2-13.95Q436.2-12.9 436.1-11.6L436.1-11.6 420.8-11.6Q421-7 422.65-4.98 424.3-2.95 427.15-2.95L427.15-2.95Q428.95-2.95 430.38-3.5 431.8-4.05 433.35-5.3L433.35-5.3 435.35-2.65Q431.65 0.65 426.95 0.65L426.95 0.65Q421.8 0.65 418.98-2.93 416.15-6.5 416.15-12.95L416.15-12.95Q416.15-19.4 418.85-23.18 421.55-26.95 426.35-26.95L426.35-26.95Q431.1-26.95 433.65-23.58 436.2-20.2 436.2-13.95L436.2-13.95ZM431.85-14.75L431.85-15.3Q431.85-23.55 426.4-23.55L426.4-23.55Q423.9-23.55 422.45-21.48 421-19.4 420.8-14.75L420.8-14.75 431.85-14.75ZM451.6-26.95Q453.7-26.95 455.45-26.25 457.2-25.55 458.8-24.1L458.8-24.1 456.8-21.4Q455.6-22.35 454.4-22.83 453.2-23.3 451.8-23.3L451.8-23.3Q448.85-23.3 447.22-20.8 445.6-18.3 445.6-13L445.6-13Q445.6-3.1 451.8-3.1L451.8-3.1Q453.2-3.1 454.35-3.58 455.5-4.05 456.8-5L456.8-5 458.9-2.25Q455.7 0.65 451.65 0.65L451.65 0.65Q446.6 0.65 443.72-2.85 440.85-6.35 440.85-12.95L440.85-12.95Q440.85-17.25 442.17-20.4 443.5-23.55 445.92-25.25 448.35-26.95 451.6-26.95L451.6-26.95ZM468.8 0.65Q466.4 0.65 465-0.8 463.6-2.25 463.6-4.85L463.6-4.85 463.6-36.95 468.1-37.45 468.1-5Q468.1-3.05 469.7-3.05L469.7-3.05Q470.35-3.05 471.15-3.35L471.15-3.35 472.15-0.2Q470.55 0.65 468.8 0.65L468.8 0.65ZM493.44-6Q493.44-4.4 493.89-3.63 494.34-2.85 495.29-2.45L495.29-2.45 494.34 0.6Q492.39 0.3 491.29-0.6 490.19-1.5 489.74-3.35L489.74-3.35Q487.19 0.65 482.59 0.65L482.59 0.65Q479.09 0.65 477.04-1.53 474.99-3.7 474.99-7.35L474.99-7.35Q474.99-11.55 477.74-13.75 480.49-15.95 485.59-15.95L485.59-15.95 488.99-15.95 488.99-18.2Q488.99-20.95 487.87-22.18 486.74-23.4 484.19-23.4L484.19-23.4Q481.44-23.4 477.79-22L477.79-22 476.69-25.15Q481.09-26.95 484.89-26.95L484.89-26.95Q493.44-26.95 493.44-18.4L493.44-18.4 493.44-6ZM483.64-2.75Q487.14-2.75 488.99-6.85L488.99-6.85 488.99-13.05 486.09-13.05Q479.59-13.05 479.59-7.6L479.59-7.6Q479.59-5.25 480.64-4 481.69-2.75 483.64-2.75L483.64-2.75ZM512.34-26.9Q513.64-26.9 514.59-26.6L514.59-26.6 513.84-22.25Q512.89-22.55 511.79-22.55L511.79-22.55Q509.59-22.55 508.22-20.8 506.84-19.05 506.04-15.45L506.04-15.45 506.04 0 501.54 0 501.54-26.3 505.44-26.3 505.79-21.1Q507.74-26.9 512.34-26.9L512.34-26.9ZM535.39-6Q535.39-4.4 535.84-3.63 536.29-2.85 537.24-2.45L537.24-2.45 536.29 0.6Q534.34 0.3 533.24-0.6 532.14-1.5 531.69-3.35L531.69-3.35Q529.14 0.65 524.54 0.65L524.54 0.65Q521.04 0.65 518.99-1.53 516.94-3.7 516.94-7.35L516.94-7.35Q516.94-11.55 519.69-13.75 522.44-15.95 527.54-15.95L527.54-15.95 530.94-15.95 530.94-18.2Q530.94-20.95 529.81-22.18 528.69-23.4 526.14-23.4L526.14-23.4Q523.39-23.4 519.74-22L519.74-22 518.64-25.15Q523.04-26.95 526.84-26.95L526.84-26.95Q535.39-26.95 535.39-18.4L535.39-18.4 535.39-6ZM525.59-2.75Q529.09-2.75 530.94-6.85L530.94-6.85 530.94-13.05 528.04-13.05Q521.54-13.05 521.54-7.6L521.54-7.6Q521.54-5.25 522.59-4 523.64-2.75 525.59-2.75L525.59-2.75ZM554.28-4.05L555.93-1.15Q553.43 0.65 550.38 0.65L550.38 0.65Q547.18 0.65 545.46-1.2 543.73-3.05 543.73-6.4L543.73-6.4 543.73-22.9 539.98-22.9 539.98-26.3 543.73-26.3 543.73-32.35 548.23-32.9 548.23-26.3 554.03-26.3 553.53-22.9 548.23-22.9 548.23-6.45Q548.23-3.05 551.08-3.05L551.08-3.05Q551.93-3.05 552.66-3.3 553.38-3.55 554.28-4.05L554.28-4.05ZM559.83-26.3L564.33-26.3 564.33 0 559.83 0 559.83-26.3ZM562.08-38.7Q563.38-38.7 564.21-37.85 565.03-37 565.03-35.75L565.03-35.75Q565.03-34.5 564.23-33.68 563.43-32.85 562.08-32.85L562.08-32.85Q560.78-32.85 559.96-33.68 559.13-34.5 559.13-35.75L559.13-35.75Q559.13-37 559.96-37.85 560.78-38.7 562.08-38.7L562.08-38.7ZM585.68-26.3L590.18-26.3 582.33 0 576.93 0 568.83-26.3 573.53-26.3 579.63-3.8 585.68-26.3ZM613.13-13.95Q613.13-12.9 613.03-11.6L613.03-11.6 597.73-11.6Q597.93-7 599.58-4.98 601.23-2.95 604.08-2.95L604.08-2.95Q605.88-2.95 607.3-3.5 608.73-4.05 610.28-5.3L610.28-5.3 612.28-2.65Q608.58 0.65 603.88 0.65L603.88 0.65Q598.73 0.65 595.9-2.93 593.08-6.5 593.08-12.95L593.08-12.95Q593.08-19.4 595.78-23.18 598.48-26.95 603.28-26.95L603.28-26.95Q608.03-26.95 610.58-23.58 613.13-20.2 613.13-13.95L613.13-13.95ZM608.78-14.75L608.78-15.3Q608.78-23.55 603.33-23.55L603.33-23.55Q600.83-23.55 599.38-21.48 597.93-19.4 597.73-14.75L597.73-14.75 608.78-14.75ZM624.32 0.65Q621.92 0.65 620.52-0.8 619.12-2.25 619.12-4.85L619.12-4.85 619.12-36.95 623.62-37.45 623.62-5Q623.62-3.05 625.22-3.05L625.22-3.05Q625.87-3.05 626.67-3.35L626.67-3.35 627.67-0.2Q626.07 0.65 624.32 0.65L624.32 0.65ZM650.42-26.3L642.47 0.1Q641.07 4.75 638.52 7.3 635.97 9.85 631.27 10.55L631.27 10.55 630.77 7.2Q633.12 6.7 634.52 5.85 635.92 5 636.77 3.65 637.62 2.3 638.42 0L638.42 0 636.77 0 628.97-26.3 633.62-26.3 639.72-3.15 645.82-26.3 650.42-26.3Z"
                          opacity="1" transform="matrix(1,0,0,1,0,0)" fill="#ffffff"
                          class="slogan-text-1"
                          id="text-1"/>
                </svg>
            </g>
        </svg>
    </g>
</svg>
